inDegrees=no
num_controls=7
num_derivatives=13
num_iterations=122
num_multipliers=7
num_parameters=0
num_slacks=7
num_states=26
objective=5.892668
objective_accelerations=0.912724
objective_balance=0.044073
objective_effort=0.285269
objective_height=4.543431
objective_ligament=0.107172
solver_duration=1291.144997
status=Solve_Succeeded
success=true
DataType=double
version=3
OpenSimVersion=4.4-2022-07-23-0e9fedc
endheader
time	/jointset/ground_pelvis/pelvis_tilt/value	/jointset/ground_pelvis/pelvis_tx/value	/jointset/ground_pelvis/pelvis_ty/value	/jointset/hip_l/hip_flexion_l/value	/jointset/hip_l/hip_adduction_l/value	/jointset/hip_l/hip_rotation_l/value	/jointset/back/lumbar_extension/value	/jointset/patellofemoral_l/patellar_flexion_l/value	/jointset/knee_l/knee_flexion_l/value	/jointset/knee_l/knee_adduction_l/value	/jointset/knee_l/knee_rotation_l/value	/jointset/ankle_l/ankle_angle_l/value	/jointset/subtalar_l/subtalar_angle_l/value	/jointset/ground_pelvis/pelvis_tilt/speed	/jointset/ground_pelvis/pelvis_tx/speed	/jointset/ground_pelvis/pelvis_ty/speed	/jointset/hip_l/hip_flexion_l/speed	/jointset/hip_l/hip_adduction_l/speed	/jointset/hip_l/hip_rotation_l/speed	/jointset/back/lumbar_extension/speed	/jointset/patellofemoral_l/patellar_flexion_l/speed	/jointset/knee_l/knee_flexion_l/speed	/jointset/knee_l/knee_adduction_l/speed	/jointset/knee_l/knee_rotation_l/speed	/jointset/ankle_l/ankle_angle_l/speed	/jointset/subtalar_l/subtalar_angle_l/speed	/forceset/tau_hip_flexion_l	/forceset/tau_hip_adduction_l	/forceset/tau_hip_rotation_l	/forceset/tau_knee_flexion_l	/forceset/tau_ankle_angle_l	/forceset/tau_subtalar_angle_l	/forceset/tau_lumbar_extension	lambda_cid13_p0	lambda_cid13_p1	lambda_cid13_p2	lambda_cid13_p3	lambda_cid13_p4	lambda_cid13_p5	lambda_cid14_p0	/jointset/ground_pelvis/pelvis_tilt/accel	/jointset/ground_pelvis/pelvis_tx/accel	/jointset/ground_pelvis/pelvis_ty/accel	/jointset/hip_l/hip_flexion_l/accel	/jointset/hip_l/hip_adduction_l/accel	/jointset/hip_l/hip_rotation_l/accel	/jointset/back/lumbar_extension/accel	/jointset/patellofemoral_l/patellar_flexion_l/accel	/jointset/knee_l/knee_flexion_l/accel	/jointset/knee_l/knee_adduction_l/accel	/jointset/knee_l/knee_rotation_l/accel	/jointset/ankle_l/ankle_angle_l/accel	/jointset/subtalar_l/subtalar_angle_l/accel	gamma_cid13_p0	gamma_cid13_p1	gamma_cid13_p2	gamma_cid13_p3	gamma_cid13_p4	gamma_cid13_p5	gamma_cid14_p0
0	-0.0418470245758906	0.06994102330522819	0.8960449296622675	0.1955292361009247	-0.3210105572262256	-0.5030836185232102	-0.137903700187828	0.07015350928391206	0.07015350928391206	-0.1745329186422559	-0.1365680718420054	-0.06701017130107029	0.005112971992903628	0	0	0	0	0	0	0	0	0	0	0	0	0	0.09901748601508453	-0.1006551837544823	-0.03338680909315064	-0.2338305734806317	0.2056384923033714	-0.01551473788121	-0.04396875863755622	30.57376928832702	-2.442606810983242	4.425326098404009	-11.48689820245964	-514.7592914513331	-80.76502639176691	-40.42935009623932	-3.580823764227099	-1.478314411400549	-0.9129377634849249	12.66478174325754	-1.790374358925105	3.644912868495255	-2.783184541217834	12.43916352950592	12.43916352950556	2.856574547502456	-1.238705281873281	4.21398559476686	0.328347594332787	1.310367456251006e-08	2.933428734842742e-07	9.608369605252969e-08	2.159809279570438e-08	2.556733894002561e-08	-5.66794299237739e-08	4.045575882673923e-08
0.01	-0.04201693409405576	0.06986943413573915	0.8960007852420426	0.1961407592241628	-0.321097997680966	-0.5028980791194316	-0.1380488423402628	0.07075855016008079	0.070758550160067	-0.174393777838014	-0.1366203038777797	-0.06680393345906378	0.005129162210854211	-0.03390780092095707	-0.01412380465554054	-0.00880164048165113	0.1216781036096375	-0.0173962174971019	0.03694163323102097	-0.02875022788704078	0.1204513370561622	0.1204513370561615	0.02771418737804952	-0.010356886374688	0.04121558481548124	0.003321771742687639	0.09962675678693435	-0.1108166557433137	-0.03397076973305243	-0.2392903352295977	0.2106022923857495	-0.008402179717883805	-0.04371690953574787	32.40529400856391	-5.518108077096561	4.533943390307797	-14.5424585521745	-515.9622125175673	-87.33085375708468	-40.44136114002848	-3.284657255729262	-1.350304786634129	-0.8596855425418004	11.82533216946142	-1.700532912065228	3.693851053981011	-2.879211522368735	11.76458497605137	11.76458497605148	2.711808776702914	-0.9207574683649478	4.070559518568897	0.3465930661150112	-2.483362984535909e-08	3.301694652287454e-07	2.266563896749866e-07	7.680726687049549e-08	-2.914948661963452e-07	-1.617293917549969e-07	4.411682290663001e-08
0.02	-0.04252370142137342	0.06966242866089409	0.8958694427465936	0.1979502648834298	-0.3213566578040699	-0.5023481108826322	-0.138473140693553	0.07255139764327644	0.07255139764327755	-0.173980901571266	-0.1367734202079432	-0.06618649685017654	0.005181070366607228	-0.0673715618298876	-0.02708326107120555	-0.01743961504479324	0.2395965072050563	-0.03424393367270853	0.07288576660506095	-0.0558312401709414	0.237561321407526	0.2375613214075258	0.05474709250596635	-0.02017685887331005	0.08223975337617072	0.007143587560505742	0.1002360275588655	-0.1209781277321338	-0.03455473037280828	-0.2447500969785352	0.2155660924681512	-0.001289621554534231	-0.04346506043390088	34.3185066975845	-8.60548995040709	4.64168754678003	-17.82410599285777	-515.9936123734004	-93.66400288978936	-40.47656695212323	-3.492015761821798	-1.245444763425429	-0.8802045797831217	11.91284174041377	-1.68067409462607	3.445412897099058	-2.449341420589774	11.77089298854624	11.77089298854612	2.720318097475876	-1.131322506660091	4.175702343808518	0.4283564093588662	-6.277093425322824e-08	3.669960569732165e-07	3.572290832974434e-07	1.320164409452866e-07	-6.085570713327159e-07	-2.667793535862199e-07	4.777788698652078e-08
0.03	-0.04336234130414487	0.06933005198246293	0.8956521060548918	0.2009222801526317	-0.3217809736542729	-0.5014454152004628	-0.139159757663717	0.07549981412759389	0.07549981412759615	-0.173300941209583	-0.1370241189886411	-0.06516136163592763	0.005272932622000825	-0.1001643251547267	-0.03935522152804449	-0.02603357465764955	0.354277168275922	-0.05051737879390289	0.1075013134836719	-0.08126537642623022	0.351583678902803	0.3515836789027983	0.08112565682118214	-0.02986723643491895	0.1225670719450913	0.01122031379048369	0.09449790316451409	-0.1130687606718171	-0.033270078886564	-0.2369055286260647	0.2061767446561337	-0.002536763840376985	-0.03894745475467037	31.29082185344131	-7.722628813386278	4.716702425043476	-15.7430287725013	-515.7029513405	-91.08795030769119	-40.53337071111965	-3.144099157202094	-1.212517097358605	-0.8499923488237338	11.16625532346803	-1.585508727515484	3.446776102603633	-2.556433112560383	11.13715307676372	11.13715307676326	2.578835437276077	-0.8735136533943846	3.928230325963451	0.3959483863699162	-8.671332489864267e-08	3.568875794126569e-07	4.589992916332613e-07	1.567542772227857e-07	-8.080346147466132e-07	-3.656859940725301e-07	4.688811175033131e-08
